<svg id="Capa_1" enable-background="new 0 0 512 512" height="512" viewBox="0 0 512 512" width="512" xmlns="http://www.w3.org/2000/svg"><g><g><path d="m37.275 203.554 6.554-11.798c4.987-8.976 14.448-14.543 24.716-14.543h101.181c15.231 0 27.579 12.347 27.579 27.579v40.766h-135.314c-21.558 0-35.185-23.159-24.716-42.004z" fill="#868eaf"/></g><g><path d="m286.055 245.538v.02h33.406c28.54 0 51.676-23.136 51.676-51.676 0-21.752-13.621-41.175-34.073-48.585-26.885-9.741-56.421-9.208-82.937 1.496l-37.317 15.064c-11.787 4.758-19.505 16.197-19.505 28.908v54.793z" fill="#d98964"/></g><g><path d="m96.194 254.128c-47.605 0-86.194 38.599-86.194 86.195 0 47.605 38.589 86.194 86.194 86.194 47.595 0 86.194-38.589 86.194-86.194 0-47.596-38.599-86.195-86.194-86.195zm0 126.477c-22.25 0-40.282-18.032-40.282-40.282 0-22.24 18.032-40.272 40.282-40.272 22.24 0 40.272 18.032 40.272 40.272 0 22.249-18.032 40.282-40.272 40.282z" fill="#868eaf"/></g><g><path d="m415.806 254.128c-47.605 0-86.194 38.599-86.194 86.194 0 47.605 38.589 86.194 86.194 86.194s86.194-38.588 86.194-86.193c0-47.596-38.589-86.195-86.194-86.195zm0 126.477c-22.25 0-40.282-18.032-40.282-40.282 0-22.24 18.032-40.272 40.282-40.272 22.24 0 40.272 18.032 40.272 40.272 0 22.249-18.032 40.282-40.272 40.282z" fill="#868eaf"/></g><g><path d="m417.906 206.79h-12.89c-20.603 0-37.305-16.702-37.305-37.305 0-20.603 16.702-37.305 37.305-37.305h12.89z" fill="#e0e7ef"/></g><g><path d="m415.806 244.128c-5.801 0-11.483.516-17.004 1.505l-9.169-31.426c4.827 1.665 9.999 2.582 15.384 2.582h12.89c5.523 0 10-4.477 10-10v-74.61c0-5.523-4.477-10-10-10h-12.89c-14.976 0-28.339 7.004-37.013 17.898l-12.091-41.44c-3.978-13.633-16.674-23.154-30.875-23.154h-30.058c-5.523 0-10 4.477-10 10s4.477 10 10 10h30.058c5.371 0 10.172 3.601 11.676 8.756l10.017 34.332c-2.021-.998-4.107-1.897-6.259-2.677-29.247-10.597-61.241-10.021-90.087 1.625l-37.317 15.064c-10.088 4.072-17.869 11.749-22.129 21.21-6.041-4.147-13.346-6.58-21.211-6.58h-101.183c-2.316 0-4.597.228-6.83.634l-23.49-58.285c-2.064-5.123-7.891-7.602-13.013-5.537-5.123 2.064-7.602 7.891-5.537 13.013l23.949 59.425c-3.388 2.907-6.301 6.412-8.537 10.436l-6.554 11.798c-6.656 11.98-6.48 26.185.47 37.997 5.36 9.11 13.927 15.371 23.85 17.767-31.328 15.878-52.853 48.402-52.853 85.861 0 53.042 43.153 96.194 96.194 96.194s96.194-43.153 96.194-96.194c0-34.781-18.555-65.309-46.286-82.207l1.209-2.557h49.994c5.523 0 10-4.477 10-10v-40.766-14.027c0-8.679 5.2-16.387 13.249-19.636l37.317-15.064c24.269-9.796 51.184-10.281 75.788-1.367 16.436 5.955 27.479 21.702 27.479 39.184 0 22.98-18.696 41.676-41.676 41.676h-32.763c-.463-.029-.935-.027-1.411.01-5.37.413-9.422 4.996-9.227 10.33.005.144.013.287.023.427.401 5.21 4.745 9.233 9.971 9.233h33.406c22.317 0 41.903-11.914 52.732-29.716l7.402 25.367c-35.146 14.334-59.983 48.874-59.983 89.112 0 53.042 43.152 96.194 96.194 96.194s96.194-43.151 96.194-96.193-43.153-96.194-96.194-96.194zm-369.565-17.576c-3.318-5.64-3.402-12.421-.224-18.142l6.554-11.797c3.221-5.798 9.342-9.399 15.975-9.399h101.181c9.693 0 17.579 7.886 17.579 17.579v30.766h-125.315c-6.544-.001-12.431-3.368-15.75-9.007zm126.147 113.77c0 42.014-34.181 76.194-76.194 76.194-42.013.001-76.194-34.18-76.194-76.194 0-42.013 34.181-76.194 76.194-76.194 8.099 0 15.901 1.282 23.228 3.633l-11.222 23.749c-3.849-.947-7.868-1.46-12.005-1.46-27.726 0-50.282 22.552-50.282 50.272 0 27.726 22.557 50.282 50.282 50.282 27.72 0 50.272-22.557 50.272-50.282 0-16.449-7.941-31.077-20.19-40.254l11.213-23.728c20.977 13.587 34.898 37.182 34.898 63.982zm-80.471 9.045c1.38.652 2.834.961 4.266.961 3.748 0 7.341-2.117 9.048-5.729l12.202-25.821c5.571 5.493 9.032 13.121 9.032 21.544 0 16.698-13.58 30.282-30.272 30.282-16.698 0-30.282-13.584-30.282-30.282 0-16.692 13.584-30.272 30.282-30.272 1.069 0 2.125.057 3.165.166l-12.21 25.837c-2.358 4.994-.224 10.955 4.769 13.314zm285.794-179.882c0-15.056 12.249-27.305 27.305-27.305h2.89v54.61h-2.89c-12.163 0-22.491-7.996-26.012-19.007l-.417-1.428c-.57-2.196-.876-4.498-.876-6.87zm38.095 247.032c-42.013 0-76.194-34.181-76.194-76.194 0-31.145 18.792-57.969 45.626-69.772l7.353 25.201c-16.069 8.4-27.067 25.221-27.067 44.571 0 27.726 22.556 50.282 50.282 50.282 27.72 0 50.272-22.557 50.272-50.282 0-27.72-22.552-50.272-50.272-50.272-1.346 0-2.675.069-3.994.173l-7.366-25.245c3.707-.557 7.5-.85 11.36-.85 42.014 0 76.194 34.181 76.194 76.194s-34.181 76.194-76.194 76.194zm-9.392-73.39c1.274 4.367 5.265 7.202 9.595 7.202.927 0 1.871-.13 2.805-.403 5.302-1.547 8.346-7.099 6.799-12.4l-7.999-27.416c15.853.939 28.464 14.129 28.464 30.213 0 16.698-13.58 30.282-30.272 30.282-16.697 0-30.282-13.584-30.282-30.282 0-10.209 5.087-19.248 12.855-24.734z"/><path d="m251.21 241.73c-1.639-3.935-5.713-6.463-9.971-6.145-4.172.312-7.772 3.284-8.895 7.307-2.378 8.525 7.188 15.743 14.768 11.238 4.221-2.508 5.951-7.879 4.098-12.4z"/></g></g></svg>